<?xml version="1.0" encoding="UTF-8" standalone="no"?>
<!-- Created with Inkscape (http://www.inkscape.org/) -->

<svg
   xmlns:dc="http://purl.org/dc/elements/1.1/"
   xmlns:cc="http://creativecommons.org/ns#"
   xmlns:rdf="http://www.w3.org/1999/02/22-rdf-syntax-ns#"
   xmlns:svg="http://www.w3.org/2000/svg"
   xmlns="http://www.w3.org/2000/svg"
   xmlns:sodipodi="http://sodipodi.sourceforge.net/DTD/sodipodi-0.dtd"
   xmlns:inkscape="http://www.inkscape.org/namespaces/inkscape"
   id="svg3355"
   version="1.1"
   inkscape:version="0.92.3 (unknown)"
   xml:space="preserve"
   width="389.88278"
   height="446"
   viewBox="0 0 389.88278 446"
   sodipodi:docname="tarantool_config.svg"><metadata
     id="metadata3361"><rdf:RDF><cc:Work
         rdf:about=""><dc:format>image/svg+xml</dc:format><dc:type
           rdf:resource="http://purl.org/dc/dcmitype/StillImage" /><dc:title></dc:title></cc:Work></rdf:RDF></metadata><defs
     id="defs3359" /><sodipodi:namedview
     pagecolor="#ffffff"
     bordercolor="#666666"
     borderopacity="1"
     objecttolerance="10"
     gridtolerance="10"
     guidetolerance="10"
     inkscape:pageopacity="0"
     inkscape:pageshadow="2"
     inkscape:window-width="1280"
     inkscape:window-height="772"
     id="namedview3357"
     showgrid="false"
     inkscape:zoom="0.99562346"
     inkscape:cx="362.90698"
     inkscape:cy="243.88779"
     inkscape:window-x="136"
     inkscape:window-y="59"
     inkscape:window-maximized="0"
     inkscape:current-layer="g3442"
     fit-margin-top="0"
     fit-margin-left="0"
     fit-margin-right="0"
     fit-margin-bottom="0" /><g
     id="g3363"
     inkscape:groupmode="layer"
     inkscape:label="ink_ext_XXXXXX"
     transform="matrix(1.25,0,0,-1.25,-5.4999999e-6,446)"><g
       id="g3442"
       transform="matrix(1.3694212,0,0,1.3694212,-701.14365,-13.051908)"><path
         d="m 735.802,207.843 -105.957,61.174 c -2.452,1.416 -5.473,1.416 -7.926,0 L 515.963,207.843 C 513.511,206.427 512,203.811 512,200.979 l 0,-122.3481 c 0,-2.8309 1.511,-5.4477 3.963,-6.8637 L 621.919,10.593 c 2.453,-1.41605 5.474,-1.41605 7.926,0 l 105.957,61.1742 c 2.452,1.416 3.963,4.0328 3.963,6.8637 l 0,122.3481 c 0,2.832 -1.511,5.448 -3.963,6.864"
         style="fill:#302f2f;fill-opacity:1;fill-rule:nonzero;stroke:none"
         id="path3395"
         inkscape:connector-curvature="0" /><g
         id="g4128"
         transform="matrix(0.16807064,0,0,-0.16807064,578.58075,191.73212)"
         style="fill:#f9f9f9"><g
           id="g4070"
           style="fill:#f9f9f9">
	<g
   id="g4068"
   style="fill:#f9f9f9">
		<path
   id="path4064"
   d="m 566.104,323.594 h -21.531 c -5.826,0 -12.619,-5.272 -14.834,-11.515 -2.053,-5.786 -4.465,-11.545 -7.16,-17.121 -2.871,-5.93 -1.814,-14.418 2.305,-18.537 l 15.326,-15.328 c 10.738,-10.737 10.738,-28.21 0,-38.948 l -24.877,-24.877 c -5.203,-5.202 -12.117,-8.066 -19.475,-8.066 -7.355,0 -14.271,2.864 -19.473,8.066 l -15.328,15.328 c -2.461,2.46 -6.559,3.929 -10.957,3.929 -2.754,0 -5.375,-0.563 -7.574,-1.628 -5.578,-2.699 -11.346,-5.113 -17.145,-7.176 -6.24,-2.215 -11.512,-9.008 -11.512,-14.832 v -21.533 c 0,-15.184 -12.354,-27.54 -27.541,-27.54 h -35.189 c -15.188,0 -27.541,12.356 -27.541,27.54 v 21.533 c 0,5.826 -5.271,12.62 -11.512,14.832 -5.791,2.057 -11.557,4.465 -17.129,7.158 -2.163,1.046 -4.847,1.622 -7.558,1.622 -4.416,0 -8.525,-1.472 -10.992,-3.938 l -15.303,-15.297 c -5.202,-5.202 -12.118,-8.066 -19.477,-8.066 -7.356,0 -14.272,2.864 -19.474,8.063 l -24.902,24.887 c -5.205,5.199 -8.069,12.114 -8.072,19.471 0,7.356 2.864,14.272 8.066,19.474 l 15.328,15.328 c 4.122,4.122 5.181,12.616 2.311,18.55 -2.69,5.566 -5.098,11.322 -7.151,17.111 -2.215,6.239 -9.005,11.512 -14.832,11.512 h -21.53 c -15.187,0 -27.54,12.356 -27.54,27.54 v 35.19 c 0,15.184 12.353,27.54 27.54,27.54 h 21.53 c 5.827,0 12.62,5.269 14.835,11.509 2.05,5.773 4.458,11.532 7.157,17.111 2.868,5.93 1.806,14.425 -2.319,18.55 l -15.328,15.327 c -10.737,10.737 -10.737,28.21 0,38.947 l 24.912,24.915 c 5.202,5.202 12.118,8.066 19.474,8.066 7.356,0 14.272,-2.864 19.474,-8.066 l 15.328,-15.327 c 2.466,-2.467 6.573,-3.938 10.985,-3.938 2.751,0 5.364,0.56 7.558,1.622 5.576,2.695 11.333,5.104 17.115,7.157 6.238,2.215 11.512,9.008 11.512,14.835 v 21.533 c 0,15.184 12.354,27.539 27.539,27.539 h 35.191 c 15.186,0 27.539,-12.355 27.539,-27.539 v -21.533 c 0,-5.827 5.273,-12.62 11.512,-14.832 5.793,-2.057 11.559,-4.465 17.131,-7.157 2.162,-1.047 4.846,-1.622 7.557,-1.622 4.416,0 8.523,1.472 10.99,3.938 l 15.326,15.327 c 5.203,5.202 12.115,8.066 19.471,8.066 7.359,0 14.275,-2.867 19.477,-8.072 l 24.889,-24.902 c 10.73,-10.74 10.73,-28.213 -0.004,-38.951 l -15.314,-15.321 c -4.119,-4.118 -5.176,-12.613 -2.309,-18.547 2.693,-5.569 5.098,-11.331 7.154,-17.12 2.213,-6.239 9.004,-11.509 14.83,-11.509 h 21.529 c 15.188,0 27.541,-12.356 27.541,-27.54 v -35.19 c -0.01,-15.194 -12.366,-27.548 -27.549,-27.548 z m -116.663,45.135 c 0,44.502 -36.207,80.708 -80.709,80.708 -44.5,0 -80.707,-36.206 -80.707,-80.708 0,-44.501 36.207,-80.707 80.707,-80.707 44.502,0 80.709,36.203 80.709,80.707 z"
   inkscape:connector-curvature="0"
   style="fill:#f9f9f9" />
		<path
   id="path4066"
   d="m 201.868,146.904 c 0.521,-1.466 2.262,-2.702 3.082,-2.702 h 10.784 c 10.123,0 18.36,-8.234 18.36,-18.36 v -17.595 c 0,-10.125 -8.237,-18.36 -18.36,-18.36 h -10.781 c -0.82,0 -2.561,-1.236 -3.081,-2.702 -1.083,-3.051 -2.353,-6.089 -3.776,-9.024 -0.664,-1.374 -0.312,-3.446 0.263,-4.021 l 7.666,-7.665 c 7.157,-7.161 7.157,-18.807 0,-25.964 L 193.586,28.072 c -3.467,-3.467 -8.079,-5.376 -12.983,-5.376 -4.905,0 -9.517,1.913 -12.984,5.379 l -7.662,7.663 c -0.239,0.239 -1.059,0.621 -2.237,0.621 -0.67,0 -1.319,-0.128 -1.784,-0.355 -2.94,-1.423 -5.976,-2.693 -9.024,-3.773 -1.469,-0.52 -2.705,-2.265 -2.705,-3.082 V 18.366 c 0,-10.126 -8.237,-18.36 -18.36,-18.36 h -17.595 c -10.123,0 -18.36,8.234 -18.36,18.36 v 10.783 c 0,0.82 -1.236,2.558 -2.702,3.079 -3.063,1.086 -6.102,2.359 -9.03,3.776 -0.462,0.223 -1.114,0.352 -1.784,0.352 -1.178,0 -1.995,-0.379 -2.233,-0.618 l -7.666,-7.663 c -3.467,-3.467 -8.078,-5.376 -12.983,-5.376 -4.905,0 -9.514,1.909 -12.98,5.376 L 28.073,40.514 c -7.157,7.161 -7.157,18.81 0,25.967 l 7.662,7.662 c 0.575,0.575 0.93,2.647 0.266,4.018 -1.423,2.938 -2.693,5.976 -3.776,9.027 -0.52,1.466 -2.265,2.705 -3.082,2.705 H 18.36 C 8.238,89.893 0,98.127 0,108.253 v 17.595 c 0,10.123 8.235,18.36 18.357,18.36 h 10.784 c 0.82,0 2.561,1.236 3.082,2.702 1.083,3.054 2.353,6.089 3.776,9.024 0.664,1.374 0.312,3.445 -0.263,4.021 l -7.666,7.666 c -3.467,3.467 -5.376,8.079 -5.376,12.983 0,4.905 1.909,9.514 5.379,12.984 l 12.439,12.436 c 3.467,3.467 8.078,5.376 12.983,5.376 4.905,0 9.514,-1.909 12.98,-5.376 l 7.666,-7.665 c 0.238,-0.239 1.059,-0.621 2.237,-0.621 0.67,0 1.319,0.128 1.784,0.354 2.941,1.423 5.977,2.693 9.024,3.773 1.469,0.52 2.705,2.264 2.705,3.081 v 10.784 c 0,10.125 8.238,18.36 18.36,18.36 h 17.595 c 10.123,0 18.36,-8.234 18.36,-18.36 v -10.781 c 0,-0.82 1.236,-2.558 2.702,-3.078 3.051,-1.083 6.086,-2.353 9.024,-3.776 0.465,-0.227 1.117,-0.355 1.787,-0.355 1.178,0 1.995,0.382 2.237,0.621 l 7.666,7.665 c 3.467,3.467 8.078,5.376 12.983,5.376 4.905,0 9.514,-1.909 12.98,-5.376 l 12.439,-12.438 c 7.157,-7.161 7.157,-18.807 0,-25.964 l -7.662,-7.662 c -0.576,-0.575 -0.931,-2.65 -0.267,-4.021 1.424,-2.954 2.693,-5.989 3.773,-9.037 z m -49.057,-29.86 c 0,19.719 -16.043,35.765 -35.762,35.765 -19.722,0 -35.765,-16.043 -35.765,-35.765 0,-19.722 16.043,-35.765 35.765,-35.765 19.718,0 35.762,16.044 35.762,35.765 z"
   inkscape:connector-curvature="0"
   style="fill:#f9f9f9" />
	</g>
</g><g
           id="g4072"
           style="fill:#f9f9f9">
</g><g
           id="g4074"
           style="fill:#f9f9f9">
</g><g
           id="g4076"
           style="fill:#f9f9f9">
</g><g
           id="g4078"
           style="fill:#f9f9f9">
</g><g
           id="g4080"
           style="fill:#f9f9f9">
</g><g
           id="g4082"
           style="fill:#f9f9f9">
</g><g
           id="g4084"
           style="fill:#f9f9f9">
</g><g
           id="g4086"
           style="fill:#f9f9f9">
</g><g
           id="g4088"
           style="fill:#f9f9f9">
</g><g
           id="g4090"
           style="fill:#f9f9f9">
</g><g
           id="g4092"
           style="fill:#f9f9f9">
</g><g
           id="g4094"
           style="fill:#f9f9f9">
</g><g
           id="g4096"
           style="fill:#f9f9f9">
</g><g
           id="g4098"
           style="fill:#f9f9f9">
</g><g
           id="g4100"
           style="fill:#f9f9f9">
</g></g></g></g></svg>