<?xml version="1.0" encoding="UTF-8" standalone="no"?>
<!-- Created with Inkscape (http://www.inkscape.org/) -->

<svg
   xmlns:dc="http://purl.org/dc/elements/1.1/"
   xmlns:cc="http://creativecommons.org/ns#"
   xmlns:rdf="http://www.w3.org/1999/02/22-rdf-syntax-ns#"
   xmlns:svg="http://www.w3.org/2000/svg"
   xmlns="http://www.w3.org/2000/svg"
   xmlns:sodipodi="http://sodipodi.sourceforge.net/DTD/sodipodi-0.dtd"
   xmlns:inkscape="http://www.inkscape.org/namespaces/inkscape"
   id="svg3355"
   version="1.1"
   inkscape:version="0.92.3 (unknown)"
   xml:space="preserve"
   width="389.88278"
   height="446"
   viewBox="0 0 389.88278 446"
   sodipodi:docname="tarantool2.svg"><metadata
     id="metadata3361"><rdf:RDF><cc:Work
         rdf:about=""><dc:format>image/svg+xml</dc:format><dc:type
           rdf:resource="http://purl.org/dc/dcmitype/StillImage" /><dc:title></dc:title></cc:Work></rdf:RDF></metadata><defs
     id="defs3359" /><sodipodi:namedview
     pagecolor="#ffffff"
     bordercolor="#666666"
     borderopacity="1"
     objecttolerance="10"
     gridtolerance="10"
     guidetolerance="10"
     inkscape:pageopacity="0"
     inkscape:pageshadow="2"
     inkscape:window-width="1280"
     inkscape:window-height="772"
     id="namedview3357"
     showgrid="false"
     inkscape:zoom="0.99562346"
     inkscape:cx="362.90698"
     inkscape:cy="163.53612"
     inkscape:window-x="0"
     inkscape:window-y="30"
     inkscape:window-maximized="0"
     inkscape:current-layer="g3442"
     fit-margin-top="0"
     fit-margin-left="0"
     fit-margin-right="0"
     fit-margin-bottom="0" /><g
     id="g3363"
     inkscape:groupmode="layer"
     inkscape:label="ink_ext_XXXXXX"
     transform="matrix(1.25,0,0,-1.25,-5.4999999e-6,446)"><g
       id="g3442"
       transform="matrix(1.3694212,0,0,1.3694212,-701.14365,-13.051908)"><path
         d="m 735.802,207.843 -105.957,61.174 c -2.452,1.416 -5.473,1.416 -7.926,0 L 515.963,207.843 C 513.511,206.427 512,203.811 512,200.979 l 0,-122.3481 c 0,-2.8309 1.511,-5.4477 3.963,-6.8637 L 621.919,10.593 c 2.453,-1.41605 5.474,-1.41605 7.926,0 l 105.957,61.1742 c 2.452,1.416 3.963,4.0328 3.963,6.8637 l 0,122.3481 c 0,2.832 -1.511,5.448 -3.963,6.864"
         style="fill:#302f2f;fill-opacity:1;fill-rule:nonzero;stroke:none"
         id="path3395"
         inkscape:connector-curvature="0" /><path
         d="M 676.70719,176.79935 H 639.85248 V 77.911133 h -24.75073 v 98.888217 h -37.03416 v 20.87299 h 98.6396 v -20.87299"
         style="fill:#ffffff;fill-opacity:1;fill-rule:nonzero;stroke:none;stroke-width:0.86835629"
         id="path3397"
         inkscape:connector-curvature="0" /></g></g></svg>